<svg width="13" height="18" viewBox="0 0 13 18" fill="none" xmlns="http://www.w3.org/2000/svg">
<path d="M12.3033 15.9549L10.9637 13.1737C10.6754 12.5795 10.3027 12.147 9.65923 12.4107L8.38996 12.8819C7.37383 13.353 6.86753 12.8819 6.35771 12.1716L4.07231 6.97148C3.78399 6.37727 3.93518 5.81823 4.57861 5.55453L6.35419 4.8443C6.99762 4.57708 6.89566 4.02155 6.60734 3.42735L5.08492 0.593451C4.7966 -0.000753495 4.20592 -0.14491 3.56249 0.118791C2.27563 0.649707 1.21028 1.483 0.517629 2.71712C-0.326211 4.22548 0.0957094 6.32453 0.264478 7.20705C0.433246 8.08957 1.02393 9.63661 1.78691 11.2223C2.54988 12.8116 3.21792 14.0597 3.81915 14.7665C4.41687 15.4732 5.8514 17.407 7.62698 17.8394C9.08261 18.191 10.6543 17.8957 11.9411 17.3648C12.5881 17.1116 12.5881 16.5526 12.3033 15.9549V15.9549Z" fill="black"/>
</svg>
