<svg width="17" height="16" viewBox="0 0 17 16" fill="none" xmlns="http://www.w3.org/2000/svg">
<path d="M6.375 14.3438C6.37493 14.5531 6.33362 14.7604 6.25344 14.9538C6.17325 15.1472 6.05576 15.3229 5.90767 15.4709C5.75958 15.6189 5.58379 15.7363 5.39033 15.8163C5.19688 15.8964 4.98955 15.9376 4.78019 15.9375C4.57082 15.9374 4.36352 15.8961 4.17012 15.8159C3.97672 15.7358 3.80101 15.6183 3.65302 15.4702C3.50502 15.3221 3.38765 15.1463 3.30759 14.9528C3.22754 14.7594 3.18637 14.5521 3.18644 14.3427C3.18658 13.9199 3.35468 13.5144 3.65377 13.2155C3.95285 12.9166 4.35842 12.7488 4.78125 12.7489C5.20408 12.7491 5.60954 12.9172 5.90842 13.2163C6.20731 13.5154 6.37514 13.9209 6.375 14.3438V14.3438ZM17 14.3438C16.9999 14.5531 16.9586 14.7604 16.8784 14.9538C16.7983 15.1472 16.6808 15.3229 16.5327 15.4709C16.3846 15.6189 16.2088 15.7363 16.0153 15.8163C15.8219 15.8964 15.6146 15.9376 15.4052 15.9375C15.1958 15.9374 14.9885 15.8961 14.7951 15.8159C14.6017 15.7358 14.426 15.6183 14.278 15.4702C14.13 15.3221 14.0126 15.1463 13.9326 14.9528C13.8525 14.7594 13.8114 14.5521 13.8114 14.3427C13.8116 13.9199 13.9797 13.5144 14.2788 13.2155C14.5779 12.9166 14.9834 12.7488 15.4062 12.7489C15.8291 12.7491 16.2345 12.9172 16.5334 13.2163C16.8323 13.5154 17.0001 13.9209 17 14.3438V14.3438ZM17 7.4375V1.0625H4.25C4.25 0.780707 4.13806 0.510456 3.9388 0.311199C3.73954 0.111942 3.46929 0 3.1875 0H0V1.0625H2.125L2.92294 7.90287C2.57901 8.1779 2.32902 8.55297 2.20753 8.97625C2.08605 9.39952 2.09906 9.85009 2.24477 10.2656C2.39049 10.6812 2.6617 11.0412 3.02093 11.2959C3.38015 11.5507 3.80963 11.6875 4.25 11.6875H17V10.625H4.25C3.96821 10.625 3.69796 10.5131 3.4987 10.3138C3.29944 10.1145 3.1875 9.84429 3.1875 9.5625V9.55187L17 7.4375Z" fill="black"/>
</svg>
