<svg width="21" height="22" viewBox="0 0 21 22" fill="none" xmlns="http://www.w3.org/2000/svg">
<g clip-path="url(#clip0_198_257)">
<path fill-rule="evenodd" clip-rule="evenodd" d="M0 11.0586C0 16.2789 3.79138 20.6197 8.75 21.5V13.9164H6.125V11H8.75V8.66638C8.75 6.04138 10.4414 4.58362 12.8336 4.58362C13.5914 4.58362 14.4086 4.7 15.1664 4.81638V7.5H13.825C12.5414 7.5 12.25 8.14137 12.25 8.95862V11H15.05L14.5836 13.9164H12.25V21.5C17.2086 20.6197 21 16.2798 21 11.0586C21 5.25125 16.275 0.5 10.5 0.5C4.725 0.5 0 5.25125 0 11.0586Z" fill="white"/>
</g>
<defs>
<clipPath id="clip0_198_257">
<rect width="21" height="21" fill="white" transform="translate(0 0.5)"/>
</clipPath>
</defs>
</svg>
