<svg width="18" height="18" viewBox="0 0 18 18" fill="none" xmlns="http://www.w3.org/2000/svg">
<path d="M16.8801 7.46169C16.9826 8.01086 17.0384 8.58503 17.0384 9.18419C17.0384 13.8709 13.9018 17.2034 9.16427 17.2034C8.0869 17.2037 7.02003 16.9917 6.0246 16.5796C5.02918 16.1674 4.12472 15.5632 3.36291 14.8014C2.60109 14.0396 1.99685 13.1351 1.58471 12.1397C1.17257 11.1443 0.960609 10.0774 0.960938 9.00003C0.960609 7.92266 1.17257 6.85578 1.58471 5.86036C1.99685 4.86493 2.60109 3.96048 3.36291 3.19866C4.12472 2.43684 5.02918 1.8326 6.0246 1.42046C7.02003 1.00833 8.0869 0.796364 9.16427 0.796692C11.3793 0.796692 13.2301 1.61169 14.6501 2.93503L12.3376 5.24753V5.24169C11.4768 4.42169 10.3843 4.00086 9.16427 4.00086C6.4576 4.00086 4.2576 6.28753 4.2576 8.99503C4.2576 11.7017 6.4576 13.9934 9.16427 13.9934C11.6201 13.9934 13.2918 12.5892 13.6351 10.6609H9.16427V7.46169H16.8809H16.8801Z" fill="black"/>
</svg>
