<svg width="14" height="18" viewBox="0 0 14 18" fill="none" xmlns="http://www.w3.org/2000/svg">
<path d="M6.05631 17.6402C0.948009 10.2316 0 9.47184 0 6.75006C0 3.02178 3.02178 0 6.75006 0C10.4783 0 13.5001 3.02178 13.5001 6.75006C13.5001 9.47184 12.5521 10.2301 7.44382 17.6372C7.36624 17.7489 7.26283 17.8402 7.14237 17.9034C7.02192 17.9666 6.88798 17.9997 6.75197 18C6.61595 18.0003 6.48188 17.9677 6.36115 17.9051C6.24042 17.8424 6.13662 17.7515 6.05856 17.6402L6.05706 17.6372L6.05631 17.6402ZM6.75006 9.56259C7.49599 9.56259 8.21137 9.26627 8.73882 8.73882C9.26627 8.21137 9.56259 7.49599 9.56259 6.75006C9.56259 6.00413 9.26627 5.28876 8.73882 4.76131C8.21137 4.23385 7.49599 3.93754 6.75006 3.93754C6.00413 3.93754 5.28876 4.23385 4.76131 4.76131C4.23386 5.28876 3.93754 6.00413 3.93754 6.75006C3.93754 7.49599 4.23386 8.21137 4.76131 8.73882C5.28876 9.26627 6.00413 9.56259 6.75006 9.56259V9.56259Z" fill="black"/>
</svg>
