<svg width="19" height="15" viewBox="0 0 19 15" fill="none" xmlns="http://www.w3.org/2000/svg">
<path d="M17.5 12.3529C17.8852 12.3531 18.2556 12.484 18.5344 12.7186C18.8132 12.9532 18.979 13.2734 18.9975 13.6129C19.016 13.9524 18.8858 14.2851 18.6338 14.5422C18.3818 14.7993 18.0274 14.961 17.644 14.9938L17.5 15H1.5C1.11478 14.9998 0.744405 14.8689 0.465613 14.6343C0.186821 14.3998 0.020988 14.0796 0.00247574 13.7401C-0.0160365 13.4006 0.114192 13.0678 0.366175 12.8107C0.618159 12.5536 0.972581 12.3919 1.356 12.3591L1.5 12.3529H17.5ZM17.5 6.17647C17.8978 6.17647 18.2794 6.31591 18.5607 6.56412C18.842 6.81233 19 7.14898 19 7.5C19 7.85102 18.842 8.18767 18.5607 8.43588C18.2794 8.68409 17.8978 8.82353 17.5 8.82353H1.5C1.10218 8.82353 0.720644 8.68409 0.43934 8.43588C0.158035 8.18767 0 7.85102 0 7.5C0 7.14898 0.158035 6.81233 0.43934 6.56412C0.720644 6.31591 1.10218 6.17647 1.5 6.17647H17.5ZM17.5 0C17.8978 0 18.2794 0.139443 18.5607 0.387653C18.842 0.635863 19 0.972508 19 1.32353C19 1.67455 18.842 2.0112 18.5607 2.25941C18.2794 2.50762 17.8978 2.64706 17.5 2.64706H1.5C1.10218 2.64706 0.720644 2.50762 0.43934 2.25941C0.158035 2.0112 0 1.67455 0 1.32353C0 0.972508 0.158035 0.635863 0.43934 0.387653C0.720644 0.139443 1.10218 0 1.5 0H17.5Z" fill="black"/>
</svg>
