<svg width="14" height="18" viewBox="0 0 14 18" fill="none" xmlns="http://www.w3.org/2000/svg">
<path d="M0.0769679 6.45702C0.0769679 5.67902 0.212968 4.94402 0.480968 4.25802C0.737021 3.59172 1.11745 2.98019 1.60197 2.45602C2.0855 1.93873 2.63884 1.49142 3.24597 1.12702C3.86888 0.75017 4.54327 0.465865 5.24797 0.283018C5.96118 0.0957395 6.69558 0.00129278 7.43297 0.00201831C8.57197 0.00201831 9.63197 0.243018 10.615 0.723018C11.5851 1.19427 12.4109 1.91746 13.006 2.81702C13.62 3.73202 13.925 4.76702 13.925 5.92102C13.925 6.61302 13.857 7.29002 13.718 7.95202C13.5815 8.61365 13.3645 9.25609 13.072 9.86502C12.7931 10.4545 12.4285 10.9994 11.99 11.482C11.5492 11.957 11.0155 12.3362 10.422 12.596C9.77757 12.8784 9.08049 13.0206 8.37697 13.013C7.88797 13.013 7.39997 12.898 6.91797 12.667C6.43597 12.437 6.08997 12.121 5.88197 11.716C5.80897 11.997 5.70897 12.403 5.57597 12.934C5.44797 13.464 5.36197 13.806 5.32397 13.961C5.28397 14.115 5.20997 14.372 5.10197 14.728C5.02873 14.9914 4.93477 15.2485 4.82097 15.497L4.47697 16.171C4.3282 16.4602 4.16189 16.7401 3.97897 17.009C3.79797 17.271 3.57397 17.584 3.30697 17.944L3.15797 17.997L3.05897 17.889C2.95197 16.756 2.89697 16.078 2.89697 15.854C2.89697 15.191 2.97597 14.447 3.13197 13.621C3.28497 12.796 3.52697 11.759 3.85197 10.512C4.17697 9.26602 4.36297 8.53302 4.41297 8.31602C4.18397 7.84902 4.06797 7.23902 4.06797 6.48902C4.06797 5.89002 4.25497 5.32902 4.62997 4.80102C5.00597 4.27502 5.48097 4.01202 6.05697 4.01202C6.49797 4.01202 6.83997 4.15802 7.08497 4.45102C7.33097 4.74302 7.45097 5.11102 7.45097 5.56002C7.45097 6.03602 7.29297 6.72502 6.97497 7.62602C6.65697 8.52802 6.49897 9.20102 6.49897 9.64802C6.49897 10.101 6.66097 10.48 6.98497 10.777C7.30471 11.0742 7.72756 11.2352 8.16397 11.226C8.55997 11.226 8.92697 11.136 9.26797 10.955C9.60364 10.7793 9.89419 10.5285 10.117 10.222C10.6022 9.55632 10.9481 8.79955 11.134 7.99702C11.23 7.57502 11.304 7.17402 11.35 6.79702C11.399 6.41802 11.42 6.06002 11.42 5.72002C11.42 4.47302 11.024 3.50102 10.237 2.80502C9.44597 2.10902 8.41597 1.76302 7.14897 1.76302C5.70797 1.76302 4.50297 2.22902 3.53797 3.16402C2.57197 4.09602 2.08597 5.28102 2.08597 6.71802C2.08597 7.03502 2.13397 7.34102 2.22497 7.63702C2.31397 7.93202 2.41097 8.16702 2.51597 8.34102C2.61997 8.51202 2.71797 8.67902 2.80697 8.83302C2.89697 8.98702 2.94397 9.09702 2.94397 9.16302C2.94397 9.36502 2.89097 9.62802 2.78397 9.95302C2.67297 10.278 2.54197 10.44 2.38397 10.44C2.36897 10.44 2.30697 10.429 2.19897 10.406C1.82493 10.2944 1.48714 10.0856 1.21997 9.80102C0.936405 9.50607 0.712622 9.15902 0.560968 8.77902C0.409746 8.40037 0.291963 8.00921 0.208968 7.61002C0.1193 7.2323 0.0749868 6.84523 0.0769679 6.45702V6.45702Z" fill="black"/>
</svg>
