<svg width="19" height="19" viewBox="0 0 19 19" fill="none" xmlns="http://www.w3.org/2000/svg">
<path d="M18.3859 6.38903L12.6901 5.56124L10.1439 0.399322C10.0743 0.257992 9.95993 0.143582 9.8186 0.0740384C9.46415 -0.100942 9.03343 0.0448751 8.85621 0.399322L6.31002 5.56124L0.61419 6.38903C0.457157 6.41146 0.313583 6.48549 0.20366 6.59766C0.0707685 6.73425 -0.00246073 6.91801 6.31408e-05 7.10856C0.00258702 7.29912 0.0806575 7.48087 0.21712 7.61389L4.33813 11.6317L3.36452 17.3051C3.34169 17.4371 3.35629 17.5728 3.40668 17.6969C3.45706 17.821 3.54121 17.9285 3.64958 18.0072C3.75795 18.0859 3.8862 18.1327 4.0198 18.1422C4.1534 18.1517 4.28699 18.1236 4.40543 18.0611L9.50005 15.3826L14.5947 18.0611C14.7337 18.1351 14.8953 18.1598 15.0501 18.1329C15.4404 18.0656 15.7029 17.6954 15.6356 17.3051L14.662 11.6317L18.783 7.61389C18.8951 7.50397 18.9692 7.3604 18.9916 7.20336C19.0522 6.81078 18.7785 6.44736 18.3859 6.38903V6.38903Z" fill="black"/>
</svg>
