<svg width="15" height="15" viewBox="0 0 15 15" fill="none" xmlns="http://www.w3.org/2000/svg">
<g clip-path="url(#clip0_192_2582)">
<path d="M11.9995 15C11.9995 8.41781 6.58219 3.00047 0 3.00047V0C8.2275 0 15 6.7725 15 15H11.9995ZM2.05547 10.8839C2.60168 10.8849 3.12523 11.1023 3.51146 11.4885C3.89768 11.8748 4.1151 12.3983 4.11609 12.9445C4.11609 14.0775 3.18609 15 2.05078 15C0.917812 15 0 14.0794 0 12.9445C0 11.8097 0.922969 10.8839 2.05547 10.8839V10.8839ZM9.94406 15H7.02656C7.02656 11.145 3.855 7.97109 0 7.97109V5.05594C5.45391 5.05594 9.94406 9.54563 9.94406 15Z" fill="black"/>
</g>
<defs>
<clipPath id="clip0_192_2582">
<rect width="15" height="15" fill="white"/>
</clipPath>
</defs>
</svg>
