<svg width="19" height="19" viewBox="0 0 19 19" fill="none" xmlns="http://www.w3.org/2000/svg">
<path d="M9.49992 1.58331C5.13467 1.58331 1.58325 5.13473 1.58325 9.49998C1.58325 13.8652 5.13467 17.4166 9.49992 17.4166C13.8652 17.4166 17.4166 13.8652 17.4166 9.49998C17.4166 5.13473 13.8652 1.58331 9.49992 1.58331ZM9.49992 15.8333C6.00788 15.8333 3.16659 12.992 3.16659 9.49998C3.16659 6.00794 6.00788 3.16665 9.49992 3.16665C12.992 3.16665 15.8333 6.00794 15.8333 9.49998C15.8333 12.992 12.992 15.8333 9.49992 15.8333Z" fill="black"/>
<path d="M10.2916 5.54169H8.70825V10.2917H13.4583V8.70835H10.2916V5.54169Z" fill="black"/>
</svg>
