<svg width="20" height="17" viewBox="0 0 20 17" fill="none" xmlns="http://www.w3.org/2000/svg">
<path d="M19.2412 4.26498C19.1607 6.0386 17.9112 8.46498 15.4962 11.5476C12.9999 14.7659 10.885 16.375 9.15425 16.375C8.08237 16.375 7.17675 15.3932 6.4365 13.4359C5.943 11.6377 5.45037 9.8396 4.95162 8.04585C4.403 6.08848 3.81413 5.10673 3.17975 5.10673C3.04413 5.10673 2.56112 5.39548 1.74037 5.96423L0.875 4.85735C1.78062 4.0646 2.6775 3.27798 3.55775 2.4861C4.76525 1.44923 5.677 0.906726 6.28075 0.851601C7.70962 0.717726 8.59075 1.68373 8.92325 3.76098C9.28025 5.99748 9.527 7.39223 9.66787 7.93473C10.0809 9.79323 10.5341 10.7199 11.0268 10.7199C11.4091 10.7199 11.9884 10.1179 12.7584 8.9121C13.5284 7.70635 13.9405 6.79023 13.9965 6.16198C14.1068 5.12073 13.6946 4.60273 12.7584 4.60273C12.3209 4.60273 11.8676 4.70248 11.3995 4.90198C12.3007 1.9681 14.0262 0.542726 16.5734 0.627601C18.4608 0.677476 19.3515 1.89285 19.2412 4.2641V4.26498Z" fill="black"/>
</svg>
